<svg width="17" height="17" viewBox="0 0 17 17" fill="none" xmlns="http://www.w3.org/2000/svg">
<path d="M3 2.5C2.72386 2.5 2.5 2.72386 2.5 3L2.5 7.5C2.5 7.77614 2.72386 8 3 8C3.27614 8 3.5 7.77614 3.5 7.5L3.5 3.5L7.5 3.5C7.77614 3.5 8 3.27614 8 3C8 2.72386 7.77614 2.5 7.5 2.5L3 2.5ZM8.35355 7.64645L3.35355 2.64645L2.64645 3.35355L7.64645 8.35355L8.35355 7.64645Z" fill="#C4C4C4"/>
<path d="M14 14.5C14.2761 14.5 14.5 14.2761 14.5 14L14.5 9.5C14.5 9.22386 14.2761 9 14 9C13.7239 9 13.5 9.22386 13.5 9.5L13.5 13.5L9.5 13.5C9.22386 13.5 9 13.7239 9 14C9 14.2761 9.22386 14.5 9.5 14.5L14 14.5ZM8.64645 9.35355L13.6464 14.3536L14.3536 13.6464L9.35355 8.64645L8.64645 9.35355Z" fill="#C4C4C4"/>
</svg>
