<svg width="16" height="16" viewBox="0 0 16 16" fill="none" xmlns="http://www.w3.org/2000/svg">
<path d="M7.99968 9.60153C8.8823 9.60153 9.60187 8.88325 9.60187 7.99998C9.60187 7.65132 9.48779 7.3294 9.29896 7.06645C9.00797 6.663 8.53492 6.39844 8.00064 6.39844C7.46604 6.39844 6.99331 6.66268 6.70168 7.06612C6.5122 7.32907 6.3991 7.651 6.39877 7.99966C6.39781 8.88293 7.11673 9.60153 7.99968 9.60153Z" fill="white"/>
<path d="M11.497 6.04079V4.69833V4.49854L11.2962 4.49918L9.95441 4.50337L9.95956 6.04595L11.497 6.04079Z" fill="white"/>
<path d="M8 0C3.58882 0 0 3.58882 0 8C0 12.4109 3.58882 16 8 16C12.4109 16 16 12.4109 16 8C16 3.58882 12.4115 0 8 0ZM12.5497 7.06646V10.7916C12.5497 11.7619 11.7609 12.5504 10.7913 12.5504H5.20873C4.23878 12.5504 3.45025 11.7619 3.45025 10.7916V7.06646V5.20905C3.45025 4.2391 4.23878 3.45058 5.20873 3.45058H10.7909C11.7609 3.45058 12.5497 4.2391 12.5497 5.20905V7.06646Z" fill="white"/>
<path d="M10.4887 7.99994C10.4887 9.37173 9.37244 10.4886 8 10.4886C6.62757 10.4886 5.51165 9.37173 5.51165 7.99994C5.51165 7.66997 5.57738 7.35449 5.69468 7.06641H4.33643V10.7915C4.33643 11.273 4.72731 11.6629 5.20841 11.6629H10.7906C11.2711 11.6629 11.6626 11.273 11.6626 10.7915V7.06641H10.3037C10.422 7.35449 10.4887 7.66997 10.4887 7.99994Z" fill="white"/>
</svg>
