<svg width="16" height="16" viewBox="0 0 16 16" fill="none" xmlns="http://www.w3.org/2000/svg">
<path d="M9.45783 6.86328C8.77307 6.86328 8.46726 7.23966 8.29615 7.5039V6.9548H7.00653C7.02329 7.31829 7.00653 10.8349 7.00653 10.8349H8.29615V8.6672C8.29615 8.55151 8.30356 8.43518 8.33836 8.35237C8.43181 8.12035 8.64385 7.88028 9.00025 7.88028C9.46685 7.88028 9.65343 8.23604 9.65343 8.75807V10.834H10.943H10.9434V8.60887C10.9427 7.41786 10.3063 6.86328 9.45783 6.86328ZM8.29518 7.51743H8.28712C8.2897 7.51292 8.29357 7.50873 8.29518 7.50422V7.51743Z" fill="white"/>
<path d="M6.29178 6.95459H5.00217V10.8347H6.29178V6.95459Z" fill="white"/>
<path d="M8 0C3.58882 0 0 3.58882 0 8C0 12.4109 3.58882 16 8 16C12.4109 16 16 12.4109 16 8C16 3.58882 12.4115 0 8 0ZM12.2423 11.6185C12.2423 11.9588 11.96 12.2339 11.6111 12.2339H4.33449C3.98647 12.2339 3.70386 11.9588 3.70386 11.6185V4.25715C3.70386 3.91718 3.98647 3.64167 4.33449 3.64167H11.6111C11.9597 3.64167 12.2423 3.91751 12.2423 4.25715V11.6185Z" fill="white"/>
<path d="M5.65567 5.08398C5.21485 5.08398 4.92612 5.37336 4.92612 5.75425C4.92612 6.12644 5.20615 6.42451 5.6386 6.42451H5.64697C6.09683 6.42451 6.37685 6.12644 6.37685 5.75425C6.36815 5.37368 6.09715 5.08398 5.65567 5.08398Z" fill="white"/>
</svg>
