<svg width="150" height="12" viewBox="0 0 150 12" fill="none" xmlns="http://www.w3.org/2000/svg">
<path d="M6.46965 5.80157C7.54313 5.5748 8.53035 4.60157 8.53035 3.14645C8.53035 1.40787 7.28434 0.188976 5.23323 0.188976H0V11.7827H5.35783C7.50479 11.7827 8.76038 10.5165 8.76038 8.65511C8.76038 7.26614 7.72524 6 6.46965 5.80157ZM1.46645 1.47401H4.99361C6.31629 1.47401 7.02556 2.30551 7.02556 3.35433C7.02556 4.41259 6.31629 5.21574 4.99361 5.21574H1.46645V1.47401ZM5.0607 10.4976H1.46645V6.50078H5.0607C6.50799 6.50078 7.24601 7.43621 7.24601 8.50393C7.24601 9.73228 6.43131 10.4976 5.0607 10.4976Z" fill="url(#paint0_linear)"/>
<path d="M19.9745 1.71968C17.5591 1.71968 15.7955 3.51496 15.7955 5.99999C15.7955 8.48503 17.5495 10.2803 19.9745 10.2803C22.3898 10.2803 24.1534 8.48503 24.1534 5.99999C24.1534 3.51496 22.3898 1.71968 19.9745 1.71968ZM22.5719 5.99999C22.5719 7.71023 21.5272 8.86298 19.9745 8.86298C18.4217 8.86298 17.377 7.71023 17.377 5.99999C17.377 4.28976 18.4217 3.137 19.9745 3.137C21.5272 3.137 22.5719 4.28031 22.5719 5.99999Z" fill="url(#paint1_linear)"/>
<path d="M48.9489 0.0283464V0H29.2524V1.23779H44.6262C43.4856 2.15433 42.7476 3.51496 42.5559 5.12126H32.9042V6.35905H42.508C42.6038 8.18267 43.3706 9.73228 44.6262 10.7433H29.2524V11.9811H48.9489V11.9527C52.0735 11.6598 54.1629 9.20314 54.1629 5.9811C54.1629 2.75905 52.0831 0.32126 48.9489 0.0283464ZM48.3259 10.7055C45.6805 10.7055 44.0128 8.69291 44.0032 6.00944V5.99055C44.0128 3.28819 45.6805 1.29449 48.3259 1.29449C50.9521 1.29449 52.6486 3.29764 52.6486 6C52.6486 8.69291 50.9521 10.7055 48.3259 10.7055Z" fill="url(#paint2_linear)"/>
<path d="M61.1597 3.14646C61.1597 2.05039 62.1661 1.30394 63.5751 1.30394C64.8594 1.30394 66.0958 1.73858 66.9776 2.69291L67.8594 1.63464C66.8722 0.604724 65.4824 0.0188978 63.6805 0.0188978C61.3706 0.0188978 59.6454 1.32283 59.6454 3.23149C59.6454 7.37007 66.6134 5.71653 66.6134 8.70236C66.6134 9.59055 65.9425 10.7055 63.8434 10.7055C62.1853 10.7055 60.9201 9.90236 60.1438 9.05196L59.2812 10.148C60.2492 11.2252 61.754 11.9905 63.7955 11.9905C66.968 11.9905 68.1278 10.2709 68.1278 8.58897C68.1182 4.26142 61.1597 5.75433 61.1597 3.14646Z" fill="url(#paint3_linear)"/>
<path d="M73.0256 1.47401H76.7444V11.7827H78.2012V1.47401H81.9392V0.188976H73.0256V1.47401Z" fill="url(#paint4_linear)"/>
<path d="M87.4025 11.7827H95.1086V10.4976H88.8689V6.50078H94.9839V5.21574H88.8689V1.47401H95.1086V0.188976H87.4025V11.7827Z" fill="url(#paint5_linear)"/>
<path d="M109.371 3.68504C109.371 1.54961 107.837 0.188976 105.69 0.188976H100.965V11.7827H102.431V7.1811H104.78L107.78 11.7827H109.505L106.332 7.05826C107.923 6.91653 109.371 5.77322 109.371 3.68504ZM102.422 5.90551V1.47401H105.508C106.898 1.47401 107.856 2.3811 107.856 3.68504C107.856 4.98897 106.907 5.90551 105.508 5.90551H102.422Z" fill="url(#paint6_linear)"/>
<path d="M120.565 0C117.077 0 114.728 2.57008 114.728 6C114.728 9.42992 117.077 12 120.565 12C124.035 12 126.403 9.42992 126.403 6C126.403 2.57008 124.035 0 120.565 0ZM120.565 10.7055C117.92 10.7055 116.243 8.69291 116.243 6C116.243 3.28819 117.92 1.29449 120.565 1.29449C123.192 1.29449 124.888 3.29764 124.888 6C124.879 8.69291 123.192 10.7055 120.565 10.7055Z" fill="url(#paint7_linear)"/>
<path d="M133.677 0.188976H132.211V11.7827H133.677V0.188976Z" fill="url(#paint8_linear)"/>
<path d="M143.971 0.188976H139.955V11.7827H143.971C147.623 11.7827 150 9.29763 150 5.99055C150 2.71181 147.623 0.188976 143.971 0.188976ZM143.971 10.4976H141.412V1.47401H143.971C146.875 1.47401 148.486 3.48661 148.486 5.99055C148.486 8.48503 146.827 10.4976 143.971 10.4976Z" fill="url(#paint9_linear)"/>
<defs>
<linearGradient id="paint0_linear" x1="0" y1="6.16139" x2="150" y2="6.16139" gradientUnits="userSpaceOnUse">
<stop stop-color="#2096D9"/>
<stop offset="1" stop-color="#5C35EE"/>
</linearGradient>
<linearGradient id="paint1_linear" x1="0" y1="6.16139" x2="150" y2="6.16139" gradientUnits="userSpaceOnUse">
<stop stop-color="#2096D9"/>
<stop offset="1" stop-color="#5C35EE"/>
</linearGradient>
<linearGradient id="paint2_linear" x1="0" y1="6.16139" x2="150" y2="6.16139" gradientUnits="userSpaceOnUse">
<stop stop-color="#2096D9"/>
<stop offset="1" stop-color="#5C35EE"/>
</linearGradient>
<linearGradient id="paint3_linear" x1="0" y1="6.16139" x2="150" y2="6.16139" gradientUnits="userSpaceOnUse">
<stop stop-color="#2096D9"/>
<stop offset="1" stop-color="#5C35EE"/>
</linearGradient>
<linearGradient id="paint4_linear" x1="0" y1="6.16139" x2="150" y2="6.16139" gradientUnits="userSpaceOnUse">
<stop stop-color="#2096D9"/>
<stop offset="1" stop-color="#5C35EE"/>
</linearGradient>
<linearGradient id="paint5_linear" x1="0" y1="6.16139" x2="150" y2="6.16139" gradientUnits="userSpaceOnUse">
<stop stop-color="#2096D9"/>
<stop offset="1" stop-color="#5C35EE"/>
</linearGradient>
<linearGradient id="paint6_linear" x1="0" y1="6.16139" x2="150" y2="6.16139" gradientUnits="userSpaceOnUse">
<stop stop-color="#2096D9"/>
<stop offset="1" stop-color="#5C35EE"/>
</linearGradient>
<linearGradient id="paint7_linear" x1="0" y1="6.16139" x2="150" y2="6.16139" gradientUnits="userSpaceOnUse">
<stop stop-color="#2096D9"/>
<stop offset="1" stop-color="#5C35EE"/>
</linearGradient>
<linearGradient id="paint8_linear" x1="0" y1="6.16139" x2="150" y2="6.16139" gradientUnits="userSpaceOnUse">
<stop stop-color="#2096D9"/>
<stop offset="1" stop-color="#5C35EE"/>
</linearGradient>
<linearGradient id="paint9_linear" x1="0" y1="6.16139" x2="150" y2="6.16139" gradientUnits="userSpaceOnUse">
<stop stop-color="#2096D9"/>
<stop offset="1" stop-color="#5C35EE"/>
</linearGradient>
</defs>
</svg>
